<svg xmlns="http://www.w3.org/2000/svg" id="Layer_1" width="120" height="120" x="0" y="0" enable-background="new 0 0 120 120" version="1.1" viewBox="0 0 120 120" xml:space="preserve"><metadata id="metadata17"/><rect id="rect3" width="120" height="120" x="0" y="0" fill="#34373c"/><path id="path7" fill="#fff" d="m 59.565124,37.652727 c -6.113058,0 -10.907107,-4.305124 -10.907107,-9.795372 0,-5.382148 4.914049,-9.79438 10.907107,-9.79438 5.992066,0 10.786116,4.412232 10.786116,9.79438 0,5.490248 -4.79405,9.795372 -10.786116,9.795372"/><path id="path9" fill="#fff" d="m 59.565124,44.156529 c 6.351075,0 9.347108,3.983802 9.347108,12.272727 v 34.11967 c 0,8.288926 -2.87405,12.379834 -9.347108,12.379834 -6.471074,0 -9.469091,-4.090908 -9.469091,-12.379834 v -34.11967 c 0,-8.288925 2.997025,-12.272727 9.469091,-12.272727"/><path id="path11" fill="#1bb76e" fill-opacity="1" d="m 59.564132,37.652727 c -6.113057,0 -10.907107,-4.305124 -10.907107,-9.79438 0,-5.382149 4.915041,-9.795372 10.907107,-9.795372 5.992067,0 10.786116,4.413223 10.786116,9.795372 0,5.489256 -4.794049,9.79438 -10.786116,9.79438"/></svg>